<?xml version="1.0" encoding="utf-8"?>
<!-- Generator: Adobe Illustrator 25.2.0, SVG Export Plug-In . SVG Version: 6.00 Build 0)  -->
<svg version="1.1" id="Ebene_1" xmlns="http://www.w3.org/2000/svg" xmlns:xlink="http://www.w3.org/1999/xlink" x="0px" y="0px"
	 viewBox="0 0 460 136.6" style="enable-background:new 0 0 460 136.6;" xml:space="preserve">
<style type="text/css">
	.st0{fill:#1D1D1B;}
	.st1{fill-rule:evenodd;clip-rule:evenodd;fill:#1D1D1B;}
</style>
<g>
	<g>
		<g>
			<path class="st0" d="M93.7,70.2c-0.2,0-0.5,0-0.7-0.1c-0.7-0.2-1.3-0.6-1.7-1.3c-0.4-0.6-0.5-1.4-0.3-2.1c0.3-1.2,1.4-2,2.6-2
				c0.2,0,0.5,0,0.7,0.1c1.5,0.4,2.3,1.9,1.9,3.4C96,69.4,94.9,70.2,93.7,70.2L93.7,70.2z"/>
			<path class="st0" d="M93,70.1c1.4,0.4,2.9-0.5,3.3-1.9c0.4-1.4-0.5-2.9-1.9-3.3c-1.4-0.4-2.9,0.5-3.3,1.9
				C90.7,68.2,91.5,69.7,93,70.1z"/>
			<path class="st0" d="M89.9,57.6c-1.2,0-2.3-0.8-2.6-2c-0.4-1.5,0.5-3,1.9-3.4c0.2-0.1,0.5-0.1,0.7-0.1c1.2,0,2.3,0.8,2.7,2
				c0.4,1.5-0.5,3-1.9,3.4C90.4,57.6,90.1,57.6,89.9,57.6C89.9,57.6,89.9,57.6,89.9,57.6z"/>
			<path class="st0" d="M90.6,57.5c1.4-0.4,2.3-1.9,1.9-3.3c-0.4-1.4-1.9-2.3-3.3-1.9c-1.4,0.4-2.3,1.9-1.9,3.3
				C87.7,57,89.1,57.9,90.6,57.5z"/>
			<path class="st0" d="M80.3,48.6c-0.7,0-1.4-0.3-1.9-0.8s-0.8-1.2-0.8-1.9c0-0.7,0.3-1.4,0.8-1.9c0.5-0.5,1.2-0.8,1.9-0.8
				c0.7,0,1.4,0.3,1.9,0.8c0.5,0.5,0.8,1.2,0.8,1.9c0,0.7-0.3,1.4-0.8,1.9C81.7,48.4,81,48.6,80.3,48.6L80.3,48.6z"/>
			<path class="st0" d="M78.4,44c-1.1,1.1-1.1,2.8,0,3.8c1.1,1.1,2.8,1.1,3.8,0c1.1-1.1,1.1-2.8,0-3.8C81.1,42.9,79.4,42.9,78.4,44z
				"/>
			<path class="st0" d="M67.5,45.6c-0.2,0-0.5,0-0.7-0.1c-1.5-0.4-2.3-1.9-1.9-3.4c0.3-1.2,1.4-2,2.6-2c0.2,0,0.5,0,0.7,0.1
				c0.7,0.2,1.3,0.6,1.7,1.3c0.4,0.6,0.5,1.4,0.3,2.1C69.8,44.8,68.7,45.6,67.5,45.6C67.5,45.6,67.5,45.6,67.5,45.6z"/>
			<path class="st0" d="M68.2,40.3c-1.4-0.4-2.9,0.5-3.3,1.9c-0.4,1.4,0.5,2.9,1.9,3.3c1.4,0.4,2.9-0.5,3.3-1.9
				C70.5,42.2,69.6,40.7,68.2,40.3z"/>
			<path class="st0" d="M54.9,49.4c-1.2,0-2.3-0.8-2.7-2c-0.4-1.5,0.5-3,1.9-3.4c0.2-0.1,0.5-0.1,0.7-0.1c1.2,0,2.3,0.8,2.6,2
				c0.4,1.5-0.5,3-1.9,3.4C55.4,49.4,55.1,49.4,54.9,49.4z"/>
			<path class="st0" d="M55.6,49.3c1.4-0.4,2.3-1.9,1.9-3.3c-0.4-1.4-1.9-2.3-3.3-1.9c-1.4,0.4-2.3,1.9-1.9,3.3
				C52.7,48.8,54.2,49.7,55.6,49.3z"/>
			<path class="st0" d="M45.9,59c-0.7,0-1.4-0.3-1.9-0.8c-0.5-0.5-0.8-1.2-0.8-1.9c0-0.7,0.3-1.4,0.8-1.9c0.5-0.5,1.2-0.8,1.9-0.8
				c0.7,0,1.4,0.3,1.9,0.8c1.1,1.1,1.1,2.8,0,3.9C47.3,58.7,46.6,59,45.9,59z"/>
			<path class="st0" d="M44,54.4c-1.1,1.1-1.1,2.8,0,3.8c1.1,1.1,2.8,1.1,3.8,0c1.1-1.1,1.1-2.8,0-3.8C46.8,53.3,45.1,53.3,44,54.4z
				"/>
			<path class="st0" d="M42.9,71.8c-0.2,0-0.5,0-0.7-0.1c-1.5-0.4-2.3-1.9-1.9-3.4c0.3-1.2,1.4-2,2.6-2c0.2,0,0.5,0,0.7,0.1
				c1.5,0.4,2.3,1.9,1.9,3.4C45.2,71,44.1,71.8,42.9,71.8L42.9,71.8z"/>
			<path class="st0" d="M43.6,66.5c-1.4-0.4-2.9,0.5-3.3,1.9c-0.4,1.4,0.5,2.9,1.9,3.3c1.4,0.4,2.9-0.5,3.3-1.9
				C45.9,68.4,45,66.9,43.6,66.5z"/>
			<path class="st0" d="M46.7,84.4c-1.2,0-2.3-0.8-2.7-2c-0.4-1.5,0.5-3,1.9-3.4c0.2-0.1,0.5-0.1,0.7-0.1c1.2,0,2.3,0.8,2.6,2
				c0.4,1.5-0.5,3-1.9,3.4C47.2,84.4,46.9,84.4,46.7,84.4L46.7,84.4z"/>
			<path class="st0" d="M46,79.1c-1.4,0.4-2.3,1.9-1.9,3.3c0.4,1.4,1.9,2.3,3.3,1.9c1.4-0.4,2.3-1.9,1.9-3.3
				C48.9,79.5,47.4,78.7,46,79.1z"/>
			<path class="st0" d="M56.3,93.4c-0.7,0-1.4-0.3-1.9-0.8c-0.5-0.5-0.8-1.2-0.8-1.9c0-0.7,0.3-1.4,0.8-1.9c0.5-0.5,1.2-0.8,1.9-0.8
				c0.7,0,1.4,0.3,1.9,0.8c1.1,1.1,1.1,2.8,0,3.9C57.7,93.1,57,93.4,56.3,93.4z"/>
			<path class="st0" d="M58.2,92.6c1.1-1.1,1.1-2.8,0-3.8c-1.1-1.1-2.8-1.1-3.8,0c-1.1,1.1-1.1,2.8,0,3.8
				C55.4,93.6,57.1,93.6,58.2,92.6z"/>
			<path class="st0" d="M69.1,96.4c-0.2,0-0.5,0-0.7-0.1c-0.7-0.2-1.3-0.6-1.7-1.3c-0.4-0.6-0.5-1.4-0.3-2.1c0.3-1.2,1.4-2,2.6-2
				c0.2,0,0.5,0,0.7,0.1c0.7,0.2,1.3,0.6,1.7,1.3c0.4,0.6,0.5,1.4,0.3,2.1C71.4,95.6,70.3,96.4,69.1,96.4L69.1,96.4z"/>
			<path class="st0" d="M68.4,96.3c1.4,0.4,2.9-0.5,3.3-1.9c0.4-1.4-0.5-2.9-1.9-3.3c-1.4-0.4-2.9,0.5-3.3,1.9
				C66.1,94.4,67,95.9,68.4,96.3z"/>
			<path class="st0" d="M81.7,92.6c-1.2,0-2.3-0.8-2.6-2c-0.2-0.7-0.1-1.4,0.3-2.1c0.4-0.6,1-1.1,1.7-1.3c0.2-0.1,0.5-0.1,0.7-0.1
				c1.2,0,2.3,0.8,2.6,2c0.4,1.5-0.5,3-1.9,3.4C82.2,92.6,81.9,92.6,81.7,92.6L81.7,92.6z"/>
			<path class="st0" d="M81,87.3c-1.4,0.4-2.3,1.9-1.9,3.3c0.4,1.4,1.9,2.3,3.3,1.9c1.4-0.4,2.3-1.9,1.9-3.3
				C83.9,87.7,82.4,86.9,81,87.3z"/>
			<path class="st0" d="M90.7,83c-0.7,0-1.4-0.3-1.9-0.8c-1.1-1.1-1.1-2.8,0-3.9c0.5-0.5,1.2-0.8,1.9-0.8c0.7,0,1.4,0.3,1.9,0.8
				c1.1,1.1,1.1,2.8,0,3.9C92.1,82.7,91.4,83,90.7,83z"/>
			<path class="st0" d="M92.6,82.2c1.1-1.1,1.1-2.8,0-3.8c-1.1-1.1-2.8-1.1-3.8,0c-1.1,1.1-1.1,2.8,0,3.8
				C89.8,83.3,91.5,83.3,92.6,82.2z"/>
			<g>
				<path class="st0" d="M106.5,71.6c-0.3,0-0.6,0-0.8-0.1c-1.7-0.5-2.7-2.2-2.3-3.9c0.4-1.4,1.6-2.4,3.1-2.4c0.3,0,0.6,0,0.8,0.1
					c1.7,0.5,2.7,2.2,2.3,3.9C109.2,70.6,107.9,71.6,106.5,71.6C106.5,71.6,106.5,71.6,106.5,71.6z"/>
				<path class="st0" d="M107.3,65.3c-1.7-0.4-3.4,0.6-3.9,2.2c-0.5,1.7,0.5,3.4,2.2,3.9c1.7,0.5,3.4-0.5,3.9-2.2
					C110,67.5,109,65.8,107.3,65.3z"/>
				<path class="st0" d="M101.4,52.5c-1.4,0-2.7-1-3.1-2.4c-0.2-0.8-0.1-1.7,0.3-2.4c0.4-0.7,1.1-1.3,1.9-1.5
					c0.3-0.1,0.6-0.1,0.8-0.1c1.4,0,2.7,1,3.1,2.4c0.2,0.8,0.1,1.7-0.3,2.4c-0.4,0.7-1.1,1.3-1.9,1.5
					C101.9,52.5,101.7,52.5,101.4,52.5C101.4,52.5,101.4,52.5,101.4,52.5z"/>
				<path class="st0" d="M102.2,52.3c1.7-0.5,2.7-2.2,2.2-3.9c-0.5-1.7-2.2-2.7-3.9-2.2c-1.7,0.5-2.7,2.2-2.2,3.9
					C98.8,51.8,100.5,52.8,102.2,52.3z"/>
				<path class="st0" d="M87.5,38.5c-0.9,0-1.7-0.3-2.3-0.9c-0.6-0.6-0.9-1.4-0.9-2.3c0-0.9,0.3-1.7,0.9-2.3
					c0.6-0.6,1.4-0.9,2.3-0.9c0.9,0,1.7,0.3,2.3,0.9c1.2,1.2,1.2,3.3,0,4.5C89.1,38.2,88.3,38.5,87.5,38.5
					C87.5,38.5,87.5,38.5,87.5,38.5z"/>
				<path class="st0" d="M85.2,37.5c1.2,1.2,3.2,1.2,4.5,0c1.2-1.2,1.2-3.2,0-4.5c-1.2-1.2-3.2-1.2-4.5,0C84,34.3,84,36.3,85.2,37.5
					z"/>
				<path class="st0" d="M68.4,33.3c-0.3,0-0.6,0-0.8-0.1c-1.7-0.5-2.7-2.2-2.3-3.9c0.4-1.4,1.6-2.4,3.1-2.4c0.3,0,0.6,0,0.8,0.1
					c1.7,0.5,2.7,2.2,2.3,3.9C71.1,32.3,69.8,33.3,68.4,33.3L68.4,33.3z"/>
				<path class="st0" d="M67.6,33.2c1.7,0.5,3.4-0.5,3.9-2.2c0.5-1.7-0.5-3.4-2.2-3.9c-1.7-0.5-3.4,0.5-3.9,2.2
					C64.9,31,65.9,32.7,67.6,33.2z"/>
				<path class="st0" d="M49.3,38.4c-1.4,0-2.7-1-3.1-2.4c-0.5-1.7,0.6-3.5,2.3-3.9C48.7,32,49,32,49.3,32c1.4,0,2.7,1,3.1,2.4
					c0.5,1.7-0.6,3.5-2.3,3.9C49.8,38.4,49.6,38.4,49.3,38.4z"/>
				<path class="st0" d="M48.5,32.1c-1.7,0.5-2.7,2.2-2.2,3.9c0.5,1.7,2.2,2.7,3.9,2.2c1.7-0.5,2.7-2.2,2.2-3.9
					C51.9,32.7,50.2,31.7,48.5,32.1z"/>
				<path class="st0" d="M35.3,52.3c-0.9,0-1.7-0.3-2.3-0.9c-0.6-0.6-0.9-1.4-0.9-2.3c0-0.9,0.3-1.7,0.9-2.3
					c0.6-0.6,1.4-0.9,2.3-0.9c0.9,0,1.7,0.3,2.3,0.9c0.6,0.6,0.9,1.4,0.9,2.3c0,0.9-0.3,1.7-0.9,2.3C36.9,52,36.1,52.3,35.3,52.3
					L35.3,52.3z"/>
				<path class="st0" d="M33,51.4c1.2,1.2,3.2,1.2,4.5,0c1.2-1.2,1.2-3.2,0-4.5c-1.2-1.2-3.2-1.2-4.5,0C31.8,48.1,31.8,50.1,33,51.4
					z"/>
				<path class="st0" d="M30.1,71.4c-0.3,0-0.6,0-0.8-0.1c-1.7-0.5-2.7-2.2-2.3-3.9c0.4-1.4,1.6-2.4,3.1-2.4c0.3,0,0.6,0,0.8,0.1
					c1.7,0.5,2.7,2.2,2.3,3.9C32.8,70.4,31.6,71.4,30.1,71.4L30.1,71.4z"/>
				<path class="st0" d="M29.3,71.3c1.7,0.5,3.4-0.5,3.9-2.2c0.5-1.7-0.5-3.4-2.2-3.9c-1.7-0.5-3.4,0.6-3.9,2.2
					C26.6,69.1,27.6,70.8,29.3,71.3z"/>
				<path class="st0" d="M35.2,90.5c-1.4,0-2.7-1-3.1-2.4c-0.5-1.7,0.6-3.5,2.3-3.9c0.3-0.1,0.6-0.1,0.8-0.1c1.4,0,2.7,1,3.1,2.4
					c0.5,1.7-0.6,3.5-2.3,3.9C35.7,90.5,35.5,90.5,35.2,90.5C35.2,90.5,35.2,90.5,35.2,90.5z"/>
				<path class="st0" d="M34.4,84.2c-1.7,0.5-2.7,2.2-2.2,3.9c0.5,1.7,2.2,2.7,3.9,2.2c1.7-0.5,2.7-2.2,2.2-3.9
					C37.8,84.8,36.1,83.8,34.4,84.2z"/>
				<path class="st0" d="M49.1,104.5c-0.9,0-1.7-0.3-2.3-0.9c-0.6-0.6-0.9-1.4-0.9-2.3c0-0.9,0.3-1.7,0.9-2.3
					c0.6-0.6,1.4-0.9,2.3-0.9c0.9,0,1.7,0.3,2.3,0.9c1.2,1.2,1.2,3.3,0,4.5C50.8,104.2,50,104.5,49.1,104.5L49.1,104.5z"/>
				<path class="st0" d="M51.4,99.1c-1.2-1.2-3.2-1.2-4.5,0c-1.2,1.2-1.2,3.2,0,4.5c1.2,1.2,3.2,1.2,4.5,0
					C52.6,102.3,52.6,100.3,51.4,99.1z"/>
				<path class="st0" d="M68.2,109.7c-0.3,0-0.6,0-0.8-0.1c-0.8-0.2-1.5-0.8-1.9-1.5c-0.4-0.7-0.5-1.6-0.3-2.4
					c0.4-1.4,1.6-2.4,3.1-2.4c0.3,0,0.6,0,0.8,0.1c0.8,0.2,1.5,0.8,1.9,1.5c0.4,0.7,0.5,1.6,0.3,2.4
					C70.9,108.7,69.6,109.7,68.2,109.7L68.2,109.7z"/>
				<path class="st0" d="M69,103.4c-1.7-0.5-3.4,0.5-3.9,2.2c-0.5,1.7,0.5,3.4,2.2,3.9c1.7,0.5,3.4-0.5,3.9-2.2
					C71.7,105.6,70.7,103.9,69,103.4z"/>
				<path class="st0" d="M87.3,104.6c-1.4,0-2.7-1-3.1-2.4c-0.2-0.8-0.1-1.7,0.3-2.4c0.4-0.7,1.1-1.3,1.9-1.5
					c0.3-0.1,0.6-0.1,0.8-0.1c1.4,0,2.7,1,3.1,2.4c0.5,1.7-0.6,3.5-2.3,3.9C87.9,104.6,87.6,104.6,87.3,104.6
					C87.3,104.6,87.3,104.6,87.3,104.6z"/>
				<path class="st0" d="M88.1,104.4c1.7-0.5,2.7-2.2,2.2-3.9c-0.5-1.7-2.2-2.7-3.9-2.2c-1.7,0.4-2.7,2.2-2.2,3.9
					C84.7,103.9,86.4,104.9,88.1,104.4z"/>
				<path class="st0" d="M101.3,90.7c-0.9,0-1.7-0.3-2.3-0.9c-1.2-1.2-1.2-3.3,0-4.5c0.6-0.6,1.4-0.9,2.3-0.9c0.9,0,1.7,0.3,2.3,0.9
					c1.2,1.2,1.2,3.3,0,4.5C103,90.3,102.2,90.7,101.3,90.7L101.3,90.7z"/>
				<path class="st0" d="M103.5,85.2c-1.2-1.2-3.2-1.2-4.5,0c-1.2,1.2-1.2,3.2,0,4.5c1.2,1.2,3.2,1.2,4.5,0
					C104.8,88.5,104.8,86.5,103.5,85.2z"/>
			</g>
			<g>
				<path class="st0" d="M119.5,78.3c-0.4,0-0.7,0-1.1-0.1c-2.2-0.6-3.5-2.9-2.9-5c0.5-1.8,2.1-3.1,4-3.1c0.4,0,0.7,0,1.1,0.1
					c1.1,0.3,1.9,1,2.5,1.9c0.5,1,0.7,2.1,0.4,3.1C123,77,121.4,78.3,119.5,78.3L119.5,78.3z"/>
				<path class="st0" d="M118.5,78.1c2.2,0.6,4.4-0.7,5-2.9c0.6-2.2-0.7-4.4-2.9-5c-2.2-0.6-4.4,0.7-5,2.9
					C115,75.3,116.3,77.5,118.5,78.1z"/>
				<path class="st0" d="M115.6,51.9c-1.9,0-3.5-1.3-4-3.1c-0.6-2.2,0.7-4.5,2.9-5c0.3-0.1,0.7-0.1,1.1-0.1c1.9,0,3.5,1.3,4,3.1
					c0.6,2.2-0.7,4.5-2.9,5C116.3,51.8,116,51.9,115.6,51.9L115.6,51.9z"/>
				<path class="st0" d="M119.5,46.7c-0.6-2.2-2.8-3.5-5-2.9c-2.2,0.6-3.5,2.8-2.9,5c0.6,2.2,2.8,3.5,5,2.9
					C118.8,51.1,120.1,48.9,119.5,46.7z"/>
				<path class="st0" d="M99,31c-1.1,0-2.1-0.4-2.9-1.2c-0.8-0.8-1.2-1.8-1.2-2.9s0.4-2.1,1.2-2.9c0.8-0.8,1.8-1.2,2.9-1.2
					s2.1,0.4,2.9,1.2c0.8,0.8,1.2,1.8,1.2,2.9s-0.4,2.1-1.2,2.9C101.1,30.6,100.1,31,99,31z"/>
				<path class="st0" d="M101.9,24c-1.6-1.6-4.2-1.6-5.8,0c-1.6,1.6-1.6,4.2,0,5.8c1.6,1.6,4.2,1.6,5.8,0
					C103.5,28.2,103.5,25.6,101.9,24z"/>
				<path class="st0" d="M74.2,21.2c-0.4,0-0.7,0-1.1-0.1c-2.2-0.6-3.5-2.9-2.9-5c0.5-1.8,2.1-3.1,4-3.1c0.4,0,0.7,0,1.1,0.1
					c1.1,0.3,2,1,2.5,1.9c0.5,1,0.7,2.1,0.4,3.1C77.7,19.9,76,21.2,74.2,21.2L74.2,21.2z"/>
				<path class="st0" d="M73.1,21c2.2,0.6,4.4-0.7,5-2.9c0.6-2.2-0.7-4.4-2.9-5c-2.2-0.6-4.4,0.7-5,2.9C69.7,18.2,70.9,20.4,73.1,21
					z"/>
				<path class="st0" d="M47.8,25.1c-1.9,0-3.5-1.3-4-3.1c-0.6-2.2,0.7-4.5,2.9-5c0.3-0.1,0.7-0.1,1.1-0.1c1.9,0,3.5,1.3,4,3.1
					c0.3,1.1,0.1,2.2-0.4,3.1c-0.5,1-1.4,1.6-2.5,1.9C48.5,25,48.1,25.1,47.8,25.1z"/>
				<path class="st0" d="M48.8,24.9c2.2-0.6,3.5-2.8,2.9-5c-0.6-2.2-2.8-3.5-5-2.9c-2.2,0.6-3.5,2.8-2.9,5
					C44.4,24.2,46.7,25.5,48.8,24.9z"/>
				<path class="st0" d="M26.9,41.7c-1.1,0-2.1-0.4-2.9-1.2c-1.6-1.6-1.6-4.2,0-5.8c0.8-0.8,1.8-1.2,2.9-1.2c1.1,0,2.1,0.4,2.9,1.2
					c0.8,0.8,1.2,1.8,1.2,2.9s-0.4,2.1-1.2,2.9C29,41.3,28,41.7,26.9,41.7L26.9,41.7z"/>
				<path class="st0" d="M29.7,34.7c-1.6-1.6-4.2-1.6-5.8,0c-1.6,1.6-1.6,4.2,0,5.8c1.6,1.6,4.2,1.6,5.8,0
					C31.3,38.9,31.3,36.3,29.7,34.7z"/>
				<path class="st0" d="M17.1,66.5c-0.4,0-0.7,0-1.1-0.1c-1.1-0.3-2-1-2.5-1.9c-0.5-1-0.7-2.1-0.4-3.1c0.5-1.8,2.1-3.1,4-3.1
					c0.4,0,0.7,0,1.1,0.1c2.2,0.6,3.5,2.9,2.9,5C20.6,65.3,18.9,66.5,17.1,66.5L17.1,66.5z"/>
				<path class="st0" d="M18.1,58.5c-2.2-0.6-4.4,0.7-5,2.9c-0.6,2.2,0.7,4.4,2.9,5c2.2,0.6,4.4-0.7,5-2.9
					C21.6,61.3,20.3,59,18.1,58.5z"/>
				<path class="st0" d="M21,92.9c-1.9,0-3.5-1.3-4-3.1c-0.6-2.2,0.7-4.5,2.9-5c0.3-0.1,0.7-0.1,1.1-0.1c1.9,0,3.5,1.3,4,3.1
					c0.6,2.2-0.7,4.5-2.9,5C21.7,92.9,21.3,92.9,21,92.9L21,92.9z"/>
				<path class="st0" d="M19.9,84.9c-2.2,0.6-3.5,2.8-2.9,5c0.6,2.2,2.8,3.5,5,2.9c2.2-0.6,3.5-2.8,2.9-5
					C24.3,85.6,22.1,84.3,19.9,84.9z"/>
				<path class="st0" d="M37.6,113.8c-1.1,0-2.1-0.4-2.9-1.2c-0.8-0.8-1.2-1.8-1.2-2.9c0-1.1,0.4-2.1,1.2-2.9
					c0.8-0.8,1.8-1.2,2.9-1.2c1.1,0,2.1,0.4,2.9,1.2c1.6,1.6,1.6,4.2,0,5.8C39.7,113.4,38.7,113.8,37.6,113.8L37.6,113.8z"/>
				<path class="st0" d="M40.5,106.8c-1.6-1.6-4.2-1.6-5.8,0c-1.6,1.6-1.6,4.2,0,5.8c1.6,1.6,4.2,1.6,5.8,0
					C42,111,42,108.4,40.5,106.8z"/>
				<path class="st0" d="M62.4,123.6c-0.4,0-0.7,0-1.1-0.1c-2.2-0.6-3.5-2.9-2.9-5c0.5-1.8,2.1-3.1,4-3.1c0.4,0,0.7,0,1.1,0.1
					c1.1,0.3,2,1,2.5,1.9c0.5,1,0.7,2.1,0.4,3.1C65.9,122.4,64.3,123.6,62.4,123.6L62.4,123.6z"/>
				<path class="st0" d="M63.5,115.6c-2.2-0.6-4.4,0.7-5,2.9c-0.6,2.2,0.7,4.4,2.9,5c2.2,0.6,4.4-0.7,5-2.9
					C66.9,118.4,65.6,116.2,63.5,115.6z"/>
				<path class="st0" d="M88.8,119.7c-1.9,0-3.5-1.3-4-3.1c-0.3-1.1-0.1-2.2,0.4-3.1c0.5-1,1.4-1.6,2.5-1.9c0.4-0.1,0.7-0.1,1.1-0.1
					c1.9,0,3.5,1.3,4,3.1c0.6,2.2-0.7,4.5-2.9,5C89.5,119.7,89.2,119.7,88.8,119.7L88.8,119.7z"/>
				<path class="st0" d="M87.8,111.7c-2.2,0.6-3.5,2.8-2.9,5c0.6,2.2,2.8,3.5,5,2.9c2.2-0.6,3.5-2.8,2.9-5
					C92.2,112.4,89.9,111.1,87.8,111.7z"/>
				<path class="st0" d="M109.7,103.1c-1.1,0-2.1-0.4-2.9-1.2c-0.8-0.8-1.2-1.8-1.2-2.9c0-1.1,0.4-2.1,1.2-2.9
					c0.8-0.8,1.8-1.2,2.9-1.2c1.1,0,2.1,0.4,2.9,1.2c1.6,1.6,1.6,4.2,0,5.8C111.8,102.7,110.8,103.1,109.7,103.1z"/>
				<path class="st0" d="M112.6,101.9c1.6-1.6,1.6-4.2,0-5.8c-1.6-1.6-4.2-1.6-5.8,0c-1.6,1.6-1.6,4.2,0,5.8
					C108.4,103.5,111,103.5,112.6,101.9z"/>
			</g>
			<g>
				<path class="st0" d="M131.8,90.1c-0.4,0-0.8-0.1-1.2-0.2c-1.2-0.3-2.3-1.1-2.9-2.2c-0.6-1.1-0.8-2.4-0.5-3.6
					c0.6-2.1,2.5-3.6,4.6-3.6c0.4,0,0.8,0.1,1.2,0.2c2.6,0.7,4.1,3.3,3.4,5.9C135.9,88.6,134,90.1,131.8,90.1L131.8,90.1z"/>
				<path class="st0" d="M133,80.7c-2.5-0.7-5.1,0.8-5.8,3.4c-0.7,2.5,0.8,5.1,3.4,5.8c2.5,0.7,5.1-0.8,5.8-3.4
					C137,84,135.5,81.4,133,80.7z"/>
				<path class="st0" d="M131.8,56.1c-2.2,0-4.1-1.5-4.6-3.6c-0.3-1.2-0.2-2.5,0.5-3.6c0.6-1.1,1.7-1.9,2.9-2.2
					c0.4-0.1,0.8-0.2,1.2-0.2c2.2,0,4.1,1.5,4.6,3.6c0.3,1.2,0.2,2.5-0.5,3.6c-0.6,1.1-1.7,1.9-2.9,2.2
					C132.6,56,132.2,56.1,131.8,56.1L131.8,56.1z"/>
				<path class="st0" d="M133,55.9c2.5-0.7,4-3.3,3.4-5.8c-0.7-2.5-3.3-4-5.8-3.4c-2.5,0.7-4,3.3-3.4,5.8
					C127.9,55,130.5,56.5,133,55.9z"/>
				<path class="st0" d="M114.8,26.6c-1.3,0-2.5-0.5-3.4-1.4c-0.9-0.9-1.4-2.1-1.4-3.4c0-1.3,0.5-2.5,1.4-3.4
					c0.9-0.9,2.1-1.4,3.4-1.4s2.5,0.5,3.4,1.4c1.9,1.9,1.9,4.9,0,6.8C117.3,26.1,116,26.6,114.8,26.6L114.8,26.6z"/>
				<path class="st0" d="M111.4,25.2c1.9,1.9,4.9,1.9,6.7,0c1.9-1.9,1.9-4.9,0-6.7c-1.9-1.9-4.9-1.9-6.7,0
					C109.6,20.3,109.6,23.3,111.4,25.2z"/>
				<path class="st0" d="M85.3,9.6c-0.4,0-0.8-0.1-1.2-0.2c-2.6-0.7-4.1-3.3-3.4-5.9C81.2,1.5,83.1,0,85.3,0c0.4,0,0.8,0.1,1.2,0.2
					c2.6,0.7,4.1,3.3,3.4,5.9C89.4,8.1,87.5,9.6,85.3,9.6C85.3,9.6,85.3,9.6,85.3,9.6z"/>
				<path class="st0" d="M84.1,9.4c2.5,0.7,5.1-0.8,5.8-3.4c0.7-2.5-0.8-5.1-3.4-5.8C84-0.5,81.4,1,80.7,3.6
					C80,6.1,81.5,8.7,84.1,9.4z"/>
				<path class="st0" d="M51.3,9.6c-2.2,0-4.1-1.5-4.6-3.6c-0.3-1.2-0.2-2.5,0.5-3.6c0.6-1.1,1.7-1.9,2.9-2.2
					C50.4,0.1,50.9,0,51.3,0c2.2,0,4.1,1.5,4.6,3.6c0.7,2.6-0.8,5.2-3.4,5.9C52.1,9.5,51.7,9.6,51.3,9.6C51.3,9.6,51.3,9.6,51.3,9.6
					z"/>
				<path class="st0" d="M52.5,9.4c2.5-0.7,4-3.3,3.4-5.8c-0.7-2.5-3.3-4-5.8-3.4c-2.5,0.7-4,3.3-3.4,5.8C47.4,8.6,50,10.1,52.5,9.4
					z"/>
				<path class="st0" d="M21.8,26.6c-1.3,0-2.5-0.5-3.4-1.4c-0.9-0.9-1.4-2.1-1.4-3.4s0.5-2.5,1.4-3.4c0.9-0.9,2.1-1.4,3.4-1.4
					c1.3,0,2.5,0.5,3.4,1.4c0.9,0.9,1.4,2.1,1.4,3.4c0,1.3-0.5,2.5-1.4,3.4C24.3,26.1,23.1,26.6,21.8,26.6L21.8,26.6z"/>
				<path class="st0" d="M18.4,25.2c1.9,1.9,4.9,1.9,6.7,0c1.9-1.9,1.9-4.9,0-6.7c-1.9-1.9-4.9-1.9-6.7,0
					C16.6,20.3,16.6,23.3,18.4,25.2z"/>
				<path class="st0" d="M4.8,56.1c-0.4,0-0.8-0.1-1.2-0.2C1,55.2-0.5,52.6,0.2,50c0.6-2.1,2.5-3.6,4.6-3.6c0.4,0,0.8,0.1,1.2,0.2
					c1.2,0.3,2.3,1.1,2.9,2.2c0.6,1.1,0.8,2.4,0.5,3.6C8.9,54.6,7,56.1,4.8,56.1C4.8,56.1,4.8,56.1,4.8,56.1z"/>
				<path class="st0" d="M6,46.7C3.5,46,0.9,47.5,0.2,50c-0.7,2.5,0.8,5.1,3.4,5.8c2.5,0.7,5.1-0.8,5.8-3.4C10.1,50,8.6,47.4,6,46.7
					z"/>
				<path class="st0" d="M4.8,90.1c-2.2,0-4.1-1.5-4.6-3.6C-0.2,85.3,0,84,0.6,82.9c0.6-1.1,1.7-1.9,2.9-2.2
					c0.4-0.1,0.8-0.2,1.2-0.2c2.2,0,4.1,1.5,4.6,3.6c0.3,1.2,0.2,2.5-0.5,3.6c-0.6,1.1-1.7,1.9-2.9,2.2C5.6,90,5.2,90.1,4.8,90.1
					L4.8,90.1z"/>
				<path class="st0" d="M3.6,80.7c-2.5,0.7-4,3.3-3.4,5.8c0.7,2.5,3.3,4,5.8,3.4c2.5-0.7,4-3.3,3.4-5.8C8.7,81.5,6.1,80,3.6,80.7z"
					/>
				<path class="st0" d="M21.8,119.6c-1.3,0-2.5-0.5-3.4-1.4c-1.9-1.9-1.9-4.9,0-6.8c0.9-0.9,2.1-1.4,3.4-1.4c1.3,0,2.5,0.5,3.4,1.4
					c0.9,0.9,1.4,2.1,1.4,3.4c0,1.3-0.5,2.5-1.4,3.4C24.3,119.1,23.1,119.6,21.8,119.6C21.8,119.6,21.8,119.6,21.8,119.6z"/>
				<path class="st0" d="M25.2,111.4c-1.9-1.9-4.9-1.9-6.7,0c-1.9,1.9-1.9,4.9,0,6.7c1.9,1.9,4.9,1.9,6.7,0
					C27,116.3,27,113.3,25.2,111.4z"/>
				<path class="st0" d="M51.3,136.6c-0.4,0-0.8-0.1-1.2-0.2c-1.2-0.3-2.3-1.1-2.9-2.2c-0.6-1.1-0.8-2.4-0.5-3.6
					c0.6-2.1,2.5-3.6,4.6-3.6c0.4,0,0.8,0.1,1.2,0.2c1.2,0.3,2.3,1.1,2.9,2.2s0.8,2.4,0.5,3.6C55.3,135.1,53.4,136.6,51.3,136.6
					L51.3,136.6z"/>
				<path class="st0" d="M52.5,127.2c-2.5-0.7-5.1,0.8-5.8,3.4c-0.7,2.5,0.8,5.1,3.4,5.8c2.5,0.7,5.1-0.8,5.8-3.4
					C56.5,130.5,55,127.9,52.5,127.2z"/>
				<path class="st0" d="M85.3,136.6c-2.2,0-4.1-1.5-4.6-3.6c-0.3-1.2-0.2-2.5,0.5-3.6c0.6-1.1,1.7-1.9,2.9-2.2
					c0.4-0.1,0.8-0.2,1.2-0.2c2.2,0,4.1,1.5,4.6,3.6c0.7,2.6-0.8,5.2-3.4,5.9C86.1,136.5,85.7,136.6,85.3,136.6L85.3,136.6z"/>
				<path class="st0" d="M84.1,127.2c-2.5,0.7-4,3.3-3.4,5.8c0.7,2.5,3.3,4,5.8,3.4c2.5-0.7,4-3.3,3.4-5.8
					C89.2,128,86.6,126.5,84.1,127.2z"/>
				<path class="st0" d="M114.8,119.6c-1.3,0-2.5-0.5-3.4-1.4c-0.9-0.9-1.4-2.1-1.4-3.4c0-1.3,0.5-2.5,1.4-3.4
					c0.9-0.9,2.1-1.4,3.4-1.4c1.3,0,2.5,0.5,3.4,1.4c0.9,0.9,1.4,2.1,1.4,3.4c0,1.3-0.5,2.5-1.4,3.4
					C117.3,119.1,116,119.6,114.8,119.6L114.8,119.6z"/>
				<path class="st0" d="M118.1,111.4c-1.9-1.9-4.9-1.9-6.7,0c-1.9,1.9-1.9,4.9,0,6.7c1.9,1.9,4.9,1.9,6.7,0
					C120,116.3,120,113.3,118.1,111.4z"/>
			</g>
		</g>
		<g>
			<path class="st1" d="M63.3,60l5,0c-0.3,1.5-2.5,12.3-2.5,12.4c-0.1,0.6,0.1,1,0.4,1.4c0.2,0.3,0.6,0.4,1,0.4c0.2,0,0.4,0,0.6-0.1
				c0.5-0.2,1-0.5,1.5-0.8c0.2-0.1,0.3-0.2,0.5-0.3c0.1,0,0.1-0.2,0.1-0.3l2.6-12.3c0-0.1,0-0.1,0.1-0.2l5-0.1
				c-0.2,1.3-1.9,9.4-2.5,12.2c0,0.2-0.1,0.4-0.1,0.7c0,0.6,0.3,1,0.9,1.2c0.2,0.1,0.4,0.1,0.6,0.1l0,0c0.4,0,0.7-0.1,1-0.3
				c0.4-0.3,1-0.6,1.5-1c0.5-0.4,1-0.8,1.5-1.3c0.3-0.3,0.7-0.5,1.2-0.5c0.2,0,0.4,0,0.6,0.1l-1,1.1c-0.7,0.8-1.5,1.5-2.2,2.2
				c-0.8,0.7-1.7,1.4-2.7,2.1c-0.8,0.5-1.6,0.8-2.6,0.8c-0.6,0-1.3-0.1-1.9-0.3c-1.2-0.4-1.9-1.3-2.1-2.6c-0.2,0.2-0.4,0.4-0.6,0.6
				c-1.3,1.1-2.7,2.3-4.7,2.4l-0.3,1.4l-0.3,1.2l-0.1,0.3c-0.1,0.3-0.1,0.5-0.2,0.8c0,0.6-0.3,0.8-0.9,0.9c-1,0.2-2.8,0.6-3.8,0.9
				c-0.4,0.1-0.8,0.2-0.8,0.2L63.3,60z"/>
			<path class="st1" d="M82.5,71.1c-1.1,1.1-2.1,2.2-3.2,3.2c-0.8,0.8-1.7,1.5-2.7,2.1c-1.4,1-2.9,1-4.5,0.5
				c-1.2-0.4-1.9-1.3-2.1-2.5c-1.6,1.3-3,2.8-5.3,2.9c-0.2,0.9-0.4,1.7-0.6,2.6c-0.1,0.4-0.2,0.8-0.2,1.2c0,0.6-0.3,0.8-0.9,0.9
				c-1.4,0.3-4.3,1-4.5,1c1.6-7.7,3.3-15.4,4.9-23.1c1.7,0,3.3,0,5,0c-0.3,1.2-2.6,12.2-2.6,12.4c-0.1,1.3,0.7,2.1,2,1.7
				c0.7-0.2,1.4-0.7,2-1.1c0.1-0.1,0.1-0.3,0.2-0.4c0.9-4.1,1.7-8.2,2.6-12.3c0-0.1,0.1-0.2,0.1-0.3c1.6,0,3.3,0,4.9,0
				c-0.3,1.3-1.9,9.3-2.5,12.2c0,0.2-0.1,0.5-0.1,0.7c0,0.7,0.3,1.1,1,1.2c0.6,0.1,1.1,0.1,1.7-0.2c0.5-0.3,1.1-0.6,1.5-1
				c0.5-0.4,1-0.8,1.5-1.3C81.2,71,81.7,71,82.5,71.1z"/>
		</g>
	</g>
	<g>
		<g>
			<path class="st0" d="M161.9,77.4l0-18.6l4,0c0.5,0,1.1,0.1,1.7,0.2c0.6,0.1,1.1,0.4,1.5,0.7c0.5,0.3,0.8,0.8,1.1,1.4
				c0.3,0.6,0.4,1.3,0.4,2.1c0,0.7-0.1,1.3-0.3,1.7c-0.2,0.5-0.4,0.9-0.7,1.3c-0.3,0.4-0.6,0.6-1,0.8c-0.4,0.2-0.7,0.4-1.1,0.5
				c0.5,0,0.8,0.2,1.2,0.4c0.4,0.2,0.9,0.5,1.2,0.9c0.4,0.4,0.7,0.9,0.9,1.5c0.3,0.6,0.4,1.3,0.4,2.1c0,1-0.2,1.8-0.5,2.5
				c-0.3,0.6-0.7,1.1-1.2,1.5c-0.5,0.4-1,0.6-1.6,0.8c-0.6,0.1-1.1,0.2-1.6,0.2H161.9z M162.6,76.9l3.6,0c0.6,0,1.2-0.1,1.7-0.2
				c0.5-0.2,1-0.4,1.4-0.8c0.4-0.3,0.7-0.8,0.9-1.3c0.2-0.5,0.3-1.2,0.3-2c0-0.8-0.1-1.5-0.4-2.1c-0.3-0.6-0.6-1.1-1-1.4
				c-0.4-0.4-0.8-0.6-1.3-0.8c-0.5-0.2-1-0.2-1.4-0.2h-3.8V76.9z M162.6,67.4l3.3,0c0.5,0,1-0.1,1.4-0.2c0.5-0.2,0.9-0.4,1.3-0.7
				c0.4-0.3,0.7-0.7,0.9-1.2c0.2-0.5,0.3-1.1,0.3-1.8c0-0.7-0.1-1.4-0.3-1.9c-0.2-0.5-0.5-0.9-0.9-1.2c-0.4-0.3-0.8-0.5-1.3-0.6
				c-0.5-0.1-1-0.2-1.5-0.2h-3.2V67.4z"/>
			<path class="st0" d="M161.9,77.4l0-18.5l4,0c0.5,0,1.1,0.1,1.6,0.2c0.5,0.1,1.1,0.4,1.5,0.7c0.4,0.3,0.8,0.8,1.1,1.3
				c0.3,0.6,0.4,1.3,0.4,2.1c0,0.7-0.1,1.2-0.3,1.7c-0.2,0.5-0.4,0.9-0.7,1.3c-0.3,0.4-0.6,0.6-1,0.8c-0.4,0.2-0.7,0.4-1.1,0.5
				c0.4,0.1,0.8,0.2,1.2,0.4c0.4,0.2,0.8,0.5,1.2,0.9c0.4,0.4,0.7,0.9,0.9,1.5c0.3,0.6,0.4,1.3,0.4,2.1c0,1-0.2,1.8-0.5,2.4
				c-0.3,0.6-0.7,1.1-1.2,1.5c-0.5,0.4-1,0.6-1.6,0.8c-0.6,0.1-1.1,0.2-1.6,0.2H161.9z M162.6,76.9l3.7,0c0.6,0,1.2-0.1,1.8-0.2
				c0.5-0.2,1-0.4,1.4-0.8c0.4-0.3,0.7-0.8,0.9-1.3c0.2-0.5,0.3-1.2,0.3-2c0-0.8-0.1-1.6-0.4-2.1c-0.3-0.6-0.6-1.1-1-1.4
				c-0.4-0.4-0.8-0.6-1.3-0.8c-0.5-0.2-1-0.2-1.4-0.2h-3.9V76.9z M162.6,67.4l3.3,0c0.5,0,1-0.1,1.4-0.2c0.5-0.2,0.9-0.4,1.3-0.7
				c0.4-0.3,0.7-0.7,0.9-1.3c0.2-0.5,0.3-1.1,0.3-1.8c0-0.7-0.1-1.4-0.3-1.9c-0.2-0.5-0.5-0.9-0.9-1.2c-0.4-0.3-0.8-0.5-1.3-0.6
				c-0.5-0.1-1-0.2-1.6-0.2h-3.3V67.4z"/>
			<path class="st0" d="M161.9,77.4l0-18.5l4,0c0.5,0,1.1,0.1,1.7,0.2c0.6,0.1,1.1,0.4,1.5,0.7c0.4,0.3,0.8,0.8,1.1,1.4
				c0.3,0.6,0.4,1.3,0.4,2.1c0,0.7-0.1,1.2-0.3,1.7c-0.2,0.5-0.4,0.9-0.7,1.3c-0.3,0.4-0.6,0.6-1,0.8c-0.4,0.2-0.7,0.4-1.1,0.5
				c0.4,0,0.8,0.2,1.2,0.4c0.4,0.2,0.8,0.5,1.2,0.9c0.4,0.4,0.7,0.9,0.9,1.5c0.3,0.6,0.4,1.3,0.4,2.1c0,1-0.2,1.8-0.5,2.5
				c-0.3,0.6-0.7,1.1-1.2,1.5c-0.5,0.4-1,0.6-1.6,0.8c-0.6,0.1-1.1,0.2-1.6,0.2H161.9z M162.6,76.9l3.7,0c0.6,0,1.2-0.1,1.7-0.2
				c0.5-0.2,1-0.4,1.4-0.8c0.4-0.3,0.7-0.8,0.9-1.3c0.2-0.5,0.3-1.2,0.3-2c0-0.8-0.1-1.5-0.4-2.1c-0.3-0.6-0.6-1.1-1-1.4
				c-0.4-0.4-0.8-0.6-1.3-0.8c-0.5-0.2-1-0.2-1.4-0.2h-3.9V76.9z M162.6,67.4l3.3,0c0.5,0,1-0.1,1.4-0.2c0.5-0.2,0.9-0.4,1.3-0.7
				c0.4-0.3,0.7-0.7,0.9-1.2c0.2-0.5,0.3-1.1,0.3-1.8c0-0.7-0.1-1.4-0.3-1.9c-0.2-0.5-0.5-0.9-0.9-1.2c-0.4-0.3-0.8-0.5-1.3-0.6
				c-0.5-0.1-1-0.2-1.5-0.2h-3.2V67.4z"/>
			<path class="st0" d="M171.2,72.5c0,1-0.2,1.8-0.5,2.4c-0.3,0.6-0.7,1.1-1.2,1.5c-0.5,0.4-1,0.6-1.5,0.8c-0.6,0.1-1.1,0.2-1.6,0.2
				h-4.5V58.9h4c0.5,0,1.1,0.1,1.6,0.2c0.6,0.1,1,0.4,1.5,0.7s0.8,0.8,1.1,1.3c0.3,0.6,0.4,1.3,0.4,2.1c0,0.7-0.1,1.2-0.3,1.7
				c-0.2,0.5-0.4,0.9-0.7,1.3c-0.3,0.3-0.6,0.6-1,0.8c-0.4,0.2-0.7,0.4-1.1,0.5v0.1c0.4,0.1,0.8,0.2,1.2,0.4s0.8,0.5,1.2,0.9
				c0.4,0.4,0.7,0.9,0.9,1.5C171.1,70.9,171.2,71.6,171.2,72.5z M169.9,63.3c0-0.7-0.1-1.4-0.3-1.9c-0.2-0.5-0.5-0.9-0.9-1.2
				c-0.4-0.3-0.8-0.5-1.3-0.6c-0.5-0.1-1-0.2-1.6-0.2h-3.3v8h3.3c0.5,0,1-0.1,1.5-0.2c0.5-0.2,0.9-0.4,1.3-0.7
				c0.4-0.3,0.7-0.7,0.9-1.3C169.8,64.7,169.9,64,169.9,63.3z M170.6,72.5c0-0.8-0.1-1.6-0.4-2.1c-0.3-0.6-0.6-1.1-1-1.4
				s-0.9-0.6-1.3-0.8c-0.5-0.2-1-0.2-1.4-0.2h-3.9v9h3.7c0.6,0,1.2-0.1,1.8-0.2c0.5-0.2,1-0.4,1.4-0.8c0.4-0.3,0.7-0.8,0.9-1.3
				C170.5,74,170.6,73.3,170.6,72.5z"/>
			<polygon class="st0" points="181.2,77.4 181.2,69.3 176.1,58.9 176.9,58.8 181.6,68.6 186.2,58.9 186.9,58.8 181.8,69.3 
				181.8,77.4 			"/>
			<polygon class="st0" points="181.2,77.4 181.2,69.3 176.2,58.9 176.9,58.9 181.5,68.6 186.2,58.9 186.9,58.9 181.8,69.3 
				181.8,77.4 			"/>
			<polygon class="st0" points="181.2,77.4 181.2,69.3 176.2,58.9 176.9,58.9 181.6,68.6 186.2,58.9 186.9,58.9 181.8,69.3 
				181.8,77.4 			"/>
			<path class="st0" d="M181.8,69.3v8.1h-0.6v-8.1l-5-10.4h0.7l4.7,9.7l4.7-9.7h0.7L181.8,69.3z"/>
		</g>
		<g>
			<path class="st0" d="M214,68.1c0,1.4-0.2,2.7-0.5,3.9c-0.3,1.2-0.8,2.2-1.4,3c-0.6,0.8-1.3,1.5-2.2,2c-0.8,0.5-1.8,0.7-2.9,0.7
				c-1.1,0-2.1-0.2-2.9-0.7c-0.9-0.5-1.6-1.1-2.2-2c-0.6-0.8-1.1-1.8-1.4-3c-0.3-1.2-0.5-2.5-0.5-3.9c0-1.4,0.2-2.7,0.5-3.9
				c0.3-1.2,0.8-2.2,1.3-3c0.6-0.8,1.3-1.5,2.2-1.9c0.9-0.5,1.8-0.7,3-0.7c1.1,0,2.1,0.2,2.9,0.7c0.8,0.5,1.6,1.1,2.2,1.9
				c0.6,0.8,1.1,1.8,1.4,3C213.9,65.4,214,66.7,214,68.1z M211.3,68.1c0-1-0.1-2-0.3-2.9c-0.2-0.9-0.4-1.7-0.8-2.4
				c-0.4-0.7-0.8-1.2-1.3-1.6c-0.5-0.4-1.1-0.6-1.8-0.6c-0.7,0-1.3,0.2-1.9,0.6c-0.5,0.4-1,0.9-1.3,1.6c-0.4,0.7-0.6,1.5-0.8,2.4
				c-0.2,0.9-0.3,1.9-0.3,2.9s0.1,2,0.3,2.9c0.2,0.9,0.4,1.7,0.8,2.4c0.4,0.7,0.8,1.2,1.3,1.6c0.5,0.4,1.2,0.6,1.9,0.6
				c0.7,0,1.3-0.2,1.8-0.6c0.5-0.4,1-0.9,1.3-1.6c0.4-0.7,0.6-1.5,0.8-2.4C211.2,70.1,211.3,69.1,211.3,68.1z"/>
			<path class="st0" d="M228.7,67.7c0.4,0.1,0.7,0.2,1.2,0.4c0.4,0.2,0.8,0.5,1.1,0.9c0.3,0.4,0.6,0.8,0.9,1.4
				c0.2,0.5,0.3,1.2,0.3,1.9c0,0.9-0.2,1.7-0.5,2.4c-0.3,0.6-0.8,1.1-1.3,1.5c-0.5,0.4-1.1,0.7-1.8,0.8c-0.6,0.2-1.3,0.3-1.9,0.3
				h-5.5V59.1h4.9c0.6,0,1.2,0.1,1.8,0.2c0.6,0.1,1.2,0.4,1.8,0.7c0.5,0.3,1,0.8,1.3,1.4c0.3,0.6,0.5,1.3,0.5,2.2
				c0,0.6-0.1,1.1-0.2,1.6s-0.4,0.8-0.6,1.2c-0.3,0.3-0.6,0.6-0.9,0.8C229.4,67.3,229,67.5,228.7,67.7L228.7,67.7z M229,63.9
				c0-0.6-0.1-1-0.3-1.4c-0.2-0.4-0.4-0.7-0.7-0.9c-0.3-0.2-0.7-0.4-1-0.5c-0.4-0.1-0.8-0.1-1.2-0.1h-2.1v5.9h2.2
				c0.4,0,0.8-0.1,1.2-0.2c0.4-0.1,0.7-0.3,1-0.5c0.3-0.2,0.6-0.5,0.7-0.9C228.9,64.9,229,64.4,229,63.9z M229.6,72.1
				c0-0.6-0.1-1.1-0.3-1.6c-0.2-0.4-0.5-0.8-0.8-1.1c-0.3-0.3-0.7-0.5-1.2-0.6c-0.4-0.1-0.9-0.2-1.3-0.2h-2.4v6.6h2.5
				c0.5,0,0.9-0.1,1.4-0.2c0.4-0.1,0.8-0.3,1.1-0.6c0.3-0.3,0.6-0.6,0.7-1C229.5,73.1,229.6,72.7,229.6,72.1z"/>
			<path class="st0" d="M244.2,76.3c-0.8,0.9-2,1.4-3.6,1.4c-1.2,0-2.2-0.3-3-0.9c-0.8-0.6-1.3-1.4-1.6-2.4l2.3-0.8
				c0.1,0.5,0.4,0.9,0.8,1.3c0.4,0.4,0.9,0.6,1.5,0.6c0.9,0,1.5-0.3,1.8-1c0.3-0.6,0.5-1.5,0.5-2.6V59.1h2.6v13.2
				C245.4,74,245,75.3,244.2,76.3z"/>
			<path class="st0" d="M252.7,77.2V59.1h8.5v2.1h-6v5.7h5.6v1.9h-5.6v6.4h6.3v2.1H252.7z"/>
			<path class="st0" d="M277,77c-0.8,0.4-1.8,0.7-2.9,0.7c-1.1,0-2.1-0.2-3-0.7c-0.9-0.5-1.6-1.1-2.3-2c-0.6-0.9-1.1-1.9-1.4-3
				c-0.3-1.2-0.5-2.4-0.5-3.8s0.2-2.6,0.5-3.8c0.3-1.2,0.8-2.2,1.4-3c0.6-0.8,1.4-1.5,2.3-2c0.9-0.5,1.9-0.7,3-0.7
				c1,0,2,0.2,2.8,0.5c0.9,0.4,1.6,0.9,2.1,1.6l-1.6,1.6c-0.4-0.5-0.9-1-1.5-1.2c-0.6-0.3-1.1-0.4-1.8-0.4c-0.8,0-1.5,0.2-2,0.6
				s-1,0.9-1.4,1.6c-0.4,0.7-0.7,1.5-0.8,2.3c-0.2,0.9-0.3,1.9-0.3,2.9c0,1,0.1,2,0.3,2.9c0.2,0.9,0.5,1.7,0.9,2.3
				c0.4,0.7,0.9,1.2,1.4,1.6c0.6,0.4,1.3,0.6,2,0.6c0.7,0,1.3-0.2,1.9-0.5s1-0.8,1.3-1.3l1.5,1.5C278.5,76,277.8,76.6,277,77z"/>
			<path class="st0" d="M289.3,61v16.2h-2.6V61h-3.9v-2h10.3v2H289.3z"/>
			<path class="st0" d="M316.4,77c-0.8,0.4-1.8,0.7-2.9,0.7c-1.1,0-2.1-0.2-3-0.7c-0.9-0.5-1.6-1.1-2.3-2c-0.6-0.9-1.1-1.9-1.4-3
				c-0.3-1.2-0.5-2.4-0.5-3.8s0.2-2.6,0.5-3.8c0.3-1.2,0.8-2.2,1.4-3c0.6-0.8,1.4-1.5,2.3-2c0.9-0.5,1.9-0.7,3-0.7
				c1,0,2,0.2,2.8,0.5c0.9,0.4,1.6,0.9,2.1,1.6l-1.6,1.6c-0.4-0.5-0.9-1-1.5-1.2c-0.6-0.3-1.1-0.4-1.8-0.4c-0.8,0-1.5,0.2-2,0.6
				s-1,0.9-1.4,1.6c-0.4,0.7-0.7,1.5-0.8,2.3c-0.2,0.9-0.3,1.9-0.3,2.9c0,1,0.1,2,0.3,2.9c0.2,0.9,0.5,1.7,0.9,2.3
				c0.4,0.7,0.9,1.2,1.4,1.6c0.6,0.4,1.3,0.6,2,0.6c0.7,0,1.3-0.2,1.9-0.5s1-0.8,1.3-1.3l1.5,1.5C317.9,76,317.2,76.6,316.4,77z"/>
			<path class="st0" d="M336.7,68.1c0,1.4-0.2,2.7-0.5,3.9c-0.3,1.2-0.8,2.2-1.4,3c-0.6,0.8-1.3,1.5-2.2,2c-0.8,0.5-1.8,0.7-2.9,0.7
				c-1.1,0-2.1-0.2-2.9-0.7c-0.9-0.5-1.6-1.1-2.2-2c-0.6-0.8-1.1-1.8-1.4-3c-0.3-1.2-0.5-2.5-0.5-3.9c0-1.4,0.2-2.7,0.5-3.9
				c0.3-1.2,0.8-2.2,1.3-3c0.6-0.8,1.3-1.5,2.2-1.9c0.9-0.5,1.8-0.7,3-0.7c1.1,0,2.1,0.2,2.9,0.7c0.8,0.5,1.6,1.1,2.2,1.9
				c0.6,0.8,1.1,1.8,1.4,3C336.6,65.4,336.7,66.7,336.7,68.1z M334,68.1c0-1-0.1-2-0.3-2.9c-0.2-0.9-0.4-1.7-0.8-2.4
				c-0.4-0.7-0.8-1.2-1.3-1.6c-0.5-0.4-1.1-0.6-1.8-0.6c-0.7,0-1.3,0.2-1.9,0.6c-0.5,0.4-1,0.9-1.3,1.6c-0.4,0.7-0.6,1.5-0.8,2.4
				c-0.2,0.9-0.3,1.9-0.3,2.9s0.1,2,0.3,2.9c0.2,0.9,0.4,1.7,0.8,2.4c0.4,0.7,0.8,1.2,1.3,1.6c0.5,0.4,1.2,0.6,1.9,0.6
				c0.7,0,1.3-0.2,1.8-0.6c0.5-0.4,1-0.9,1.3-1.6c0.4-0.7,0.6-1.5,0.8-2.4C333.9,70.1,334,69.1,334,68.1z"/>
			<path class="st0" d="M357.7,77.2v-15h-0.1l-4.5,15h-2.3l-4.5-15h-0.1v15h-2.4V59.1h3.8l4.3,14.4h0.1l4.2-14.4h3.9v18.2H357.7z"/>
			<path class="st0" d="M378.1,64.2c0,0.9-0.1,1.6-0.4,2.3c-0.3,0.7-0.7,1.2-1.2,1.7c-0.5,0.4-1,0.8-1.7,1c-0.6,0.2-1.3,0.3-2,0.3
				h-2.7v7.8h-2.6V59.1h5.1c0.6,0,1.2,0.1,1.9,0.2c0.6,0.2,1.2,0.4,1.7,0.8c0.5,0.4,0.9,0.9,1.3,1.6C378,62.4,378.1,63.2,378.1,64.2
				z M375.6,64.2c0-1.1-0.3-1.9-0.9-2.4c-0.6-0.5-1.3-0.8-2.2-0.8h-2.3v6.5h2.3c0.9,0,1.6-0.3,2.2-0.8
				C375.3,66.1,375.6,65.3,375.6,64.2z"/>
			<path class="st0" d="M396.2,73.6c-0.2,0.8-0.6,1.5-1,2.1c-0.5,0.6-1.1,1.1-1.9,1.4c-0.8,0.4-1.7,0.5-2.8,0.5
				c-1.1,0-2.1-0.2-2.8-0.5c-0.8-0.4-1.4-0.8-1.8-1.4c-0.5-0.6-0.8-1.3-1-2.1c-0.2-0.8-0.3-1.7-0.3-2.6V59.1h2.6v11.7
				c0,0.6,0.1,1.2,0.2,1.8c0.1,0.6,0.3,1.1,0.5,1.5c0.3,0.4,0.6,0.8,1.1,1.1c0.4,0.3,1,0.4,1.7,0.4c0.7,0,1.2-0.1,1.7-0.4
				c0.4-0.3,0.8-0.6,1-1.1c0.3-0.4,0.4-1,0.5-1.5c0.1-0.6,0.2-1.2,0.2-1.8V59.1h2.6V71C396.5,71.9,396.4,72.8,396.2,73.6z"/>
			<path class="st0" d="M408.4,61v16.2h-2.6V61H402v-2h10.3v2H408.4z"/>
			<path class="st0" d="M418,77.2V59.1h2.6v18.2H418z"/>
			<path class="st0" d="M437.5,77.2l-6.4-14.1H431v14.1h-2.4V59.1h3.1l6.4,14.1h0.1V59.1h2.4v18.2H437.5z"/>
			<path class="st0" d="M454.8,58.6c1.1,0,2,0.2,2.9,0.5c0.8,0.4,1.5,0.9,2.1,1.6l-1.6,1.6c-0.4-0.5-0.9-1-1.5-1.2
				c-0.6-0.3-1.2-0.4-1.8-0.4c-0.8,0-1.5,0.2-2,0.6c-0.6,0.4-1,0.9-1.4,1.6c-0.4,0.7-0.7,1.5-0.8,2.4c-0.2,0.9-0.3,1.8-0.3,2.8
				c0,1,0.1,2,0.3,2.9c0.2,0.9,0.5,1.7,0.9,2.3c0.4,0.7,0.9,1.2,1.5,1.6c0.6,0.4,1.3,0.6,2.1,0.6c1.1,0,1.9-0.2,2.4-0.6v-5.6h-2.7
				v-2h5.1v8.9c-0.6,0.4-1.3,0.8-2.1,1.1c-0.8,0.3-1.8,0.4-2.9,0.4c-1.2,0-2.2-0.2-3.1-0.7c-0.9-0.5-1.7-1.1-2.3-1.9
				c-0.6-0.8-1.1-1.8-1.5-3c-0.3-1.2-0.5-2.5-0.5-3.9c0-1.4,0.2-2.6,0.5-3.8c0.3-1.2,0.8-2.2,1.4-3c0.6-0.8,1.4-1.5,2.2-2
				C452.7,58.9,453.7,58.6,454.8,58.6z"/>
		</g>
	</g>
</g>
</svg>
